{"title":"Water For Elephants 2011 CAM XVID -- CBTorrents.com","uid":6354048,"size":874328817,"categoryP":"video","categoryS":"movies","magnet":"?xt=urn:btih:709a409ad8e719c6069ca251a8344704d1f8e104&amp;dn=Water+For+Elephants+2011+CAM+XVID+--+CBTorrents.com&amp;tr=udp%3A%2F%2Ftracker.openbittorrent.com%3A80&amp;tr=udp%3A%2F%2Fopen.demonii.com%3A1337&amp;tr=udp%3A%2F%2Ftracker.coppersurfer.tk%3A6969&amp;tr=udp%3A%2F%2Fexodus.desync.com%3A6969","seeders":0,"leechers":1,"uploader":"ErSSP","files":3,"time":1304090255,"description":"================= Visit CBTorrents.com For More Exclusives ======================\n\nRemember to signup on CBTorrents.com Its free and give you access to more Exclusives like this.\n\n\nFormat : AVI\nFormat/Info : Audio Video Interleave\nFile size : 831 MiB\nDuration : 1h 53mn\nOverall bit rate : 1 028 Kbps\nWriting library : VirtualDub build 32839/release\n\nVideo\nID : 0\nFormat : MPEG-4 Visual\nFormat profile : Advanced Simple@L5\nFormat settings, BVOP : Yes\nFormat settings, QPel : No\nFormat settings, GMC : No warppoints\nFormat settings, Matrix : Custom\nCodec ID : XVID\nCodec ID/Hint : XviD\nDuration : 1h 53mn\nBit rate : 890 Kbps\nWidth : 578 pixels\nHeight : 314 pixels\nDisplay aspect ratio : 16:9\nFrame rate : 25.000 fps\nColor space : YUV\nChroma subsampling : 4:2:0\nBit depth : 8 bits\nScan type : Progressive\nBits/(Pixel*Frame) : 0.196\nStream size : 720 MiB (87%)\nWriting library : XviD 1.2.1 (UTC 2008-12-04)\n\nAudio\nID : 1\nFormat : MPEG Audio\nCodec ID : 55\nCodec ID/Hint : MP3\nDuration : 1h 53mn\nBit rate : 128 Kbps\nChannel(s) : 2 channels\nSampling rate : 44.1 KHz\nStream size : 103 MiB (12%)\nAlignment : Split accross interleaves\nInterleave, duration : 40 ms (1.00 video frame)\nInterleave, preload duration : 500 ms\n\nIMDB: &lt;a href=&quot; http://www.imdb.com/title/tt1067583/&quot; rel=&quot;nofollow&quot; target=&quot;_NEW&quot;&gt; http://www.imdb.com/title/tt1067583/&lt;/a&gt;\n\n\n[IMG]http://www.bollywoodreleases.info/images/26515303463686539599.png[/IMG]\n[IMG]http://www.bollywoodreleases.info/images/60693433015717289473.png[/IMG]\n[IMG]http://www.bollywoodreleases.info/images/80248798391371278063.png[/IMG]\n\nSample Included in Torrent\n\nCredit to original Ripper\n\n\nRemember to signup on CBTorrents.com Its free and give you access to more Exclusives like this.\n\n================= Visit CBTorrents.com For More Exclusives ====================","torrent":{"xt":"urn:btih:709a409ad8e719c6069ca251a8344704d1f8e104","amp;dn":"Water+For+Elephants+2011+CAM+XVID+--+CBTorrents.com","amp;tr":["udp%3A%2F%2Ftracker.openbittorrent.com%3A80","udp%3A%2F%2Fopen.demonii.com%3A1337","udp%3A%2F%2Ftracker.coppersurfer.tk%3A6969","udp%3A%2F%2Fexodus.desync.com%3A6969"],"infoHash":"709a409ad8e719c6069ca251a8344704d1f8e104","infoHashBuffer":{"type":"Buffer","data":[112,154,64,154,216,231,25,198,6,156,162,81,168,52,71,4,209,248,225,4]},"announce":[],"urlList":[]}}